<svg id="Layer_1" data-name="Layer 1" xmlns="http://www.w3.org/2000/svg" viewBox="0 0 529.71 178.66"><defs><style>.cls-1{fill:#fff;}</style></defs><title>Apple-Appstore</title><rect x="2" y="2" width="525.71" height="174.66" rx="25.06" ry="25.06"/><path class="cls-1" d="M509.75,11.67a23.06,23.06,0,0,1,23,23.06V159.26a23.06,23.06,0,0,1-23,23.07H34.16a23.07,23.07,0,0,1-23.07-23.07V34.73A23.07,23.07,0,0,1,34.16,11.67H509.75m0-4H34.16A27.09,27.09,0,0,0,7.09,34.73V159.26a27.1,27.1,0,0,0,27.07,27.07H509.75a27.09,27.09,0,0,0,27-27.07V34.73a27.08,27.08,0,0,0-27-27.06Z" transform="translate(-7.09 -7.67)"/><path class="cls-1" d="M147.14,124.48a84,84,0,0,1-7.64,14.26c-5,7.55-12,17-20.62,17-7.7.07-9.67-5-20.12-5s-12.63,5.05-20.34,5c-8.66-.08-15.29-8.58-20.25-16.13C44.3,118.55,42.85,93.76,51.4,80.59c6.08-9.37,15.68-14.85,24.7-14.85,9.18,0,15,5,22.55,5,7.36,0,11.85-5,22.47-5,8,0,16.53,4.37,22.59,11.93C123.86,88.54,127.08,116.9,147.14,124.48Z" transform="translate(-7.09 -7.67)"/><path class="cls-1" d="M113.07,57.29c3.85-4.95,6.78-11.94,5.72-19.09-6.3.44-13.67,4.45-18,9.67-3.9,4.75-7.13,11.79-5.87,18.62C101.82,66.71,108.93,62.6,113.07,57.29Z" transform="translate(-7.09 -7.67)"/><path class="cls-1" d="M189.41,80.27l-19.87,58.5h9.1l5.93-18h19.25l6.1,18h9.35l-20-58.5Zm4.72,9.62c.67,2.61,1.39,5.32,2.32,8.25l5.36,15.51H186.57L191.85,98C192.65,95.51,193.41,92.77,194.13,89.89Z" transform="translate(-7.09 -7.67)"/><path class="cls-1" d="M245,95.43c-6,0-10.86,2.33-14.07,6.75l-.36-5.82h-8.09l.05.75c.23,3.62.33,7.61.33,13.34v45.1h8.86V134.5a15.52,15.52,0,0,0,12.1,5.2,18.28,18.28,0,0,0,13.41-5.7c3.88-4.1,5.92-10,5.92-17,0-6.22-1.78-11.59-5.14-15.54A16.85,16.85,0,0,0,245,95.43Zm-2.21,7.33c7.89,0,11.43,7.31,11.43,14.55,0,9.34-4.51,15.15-11.76,15.15A10.73,10.73,0,0,1,232,124.24a11.51,11.51,0,0,1-.31-2.86v-7.12a12.9,12.9,0,0,1,.28-2.18c0-.25.09-.49.12-.72A11.21,11.21,0,0,1,242.78,102.76Z" transform="translate(-7.09 -7.67)"/><path class="cls-1" d="M290.57,95.43c-6,0-10.86,2.33-14.07,6.75l-.36-5.82h-8.09l0,.75c.24,3.63.35,7.61.35,13.34v45.1h8.85V134.5a15.51,15.51,0,0,0,12.09,5.2A18.29,18.29,0,0,0,302.8,134c3.87-4.1,5.92-10,5.92-17,0-6.22-1.78-11.59-5.14-15.54A16.85,16.85,0,0,0,290.57,95.43Zm-2.2,7.33c7.88,0,11.41,7.31,11.41,14.55,0,9.34-4.5,15.15-11.75,15.15a10.73,10.73,0,0,1-10.43-8.22,11.51,11.51,0,0,1-.31-2.86v-7.12a13,13,0,0,1,.28-2.19c0-.24.09-.48.13-.71A11.19,11.19,0,0,1,288.37,102.76Z" transform="translate(-7.09 -7.67)"/><path class="cls-1" d="M347.67,105.06c-8.26-3.2-10.91-5.72-10.91-10.37,0-3.91,3.11-7.86,10.06-7.86a20.09,20.09,0,0,1,10.4,2.61l.75.46,2.49-7.38-.49-.29c-1.48-.87-5.71-2.9-12.89-2.9-11.29,0-19.17,6.67-19.17,16.21,0,7.69,4.93,13.07,15.53,16.92,7.52,2.81,10.31,5.68,10.31,10.61,0,5.58-4.31,9.05-11.25,9.05a24.23,24.23,0,0,1-12.76-3.62L329,128l-2.38,7.56.44.28c3.34,2.24,9.63,3.85,14.95,3.85,15.22,0,20.61-9.28,20.61-17.22C362.6,114.29,358.28,109.24,347.67,105.06Z" transform="translate(-7.09 -7.67)"/><path class="cls-1" d="M378.54,86.28,369.85,89v7.35H363.5v7.08h6.35v21.67c0,5.24,1,8.91,3.07,11.23a11.34,11.34,0,0,0,8.56,3.36,20.61,20.61,0,0,0,6.84-1.06l.5-.17-.42-7.09-.85.26a13.15,13.15,0,0,1-4.12.48c-3.43,0-4.89-2.17-4.89-7.27V103.44h10.67V96.36H378.54Z" transform="translate(-7.09 -7.67)"/><path class="cls-1" d="M411.15,95.43c-12.39,0-21,9.25-21,22.47,0,12.84,8.37,21.8,20.35,21.8h.08c10.14,0,21-7.06,21-22.56,0-6.3-1.95-11.71-5.64-15.65A19.72,19.72,0,0,0,411.15,95.43Zm-.26,7c8,0,11.59,7.76,11.59,15,0,8.87-5,15.31-11.75,15.31h-.09c-6.71,0-11.59-6.33-11.59-15.06C399.05,110.07,402.72,102.42,410.89,102.42Z" transform="translate(-7.09 -7.67)"/><path class="cls-1" d="M458.7,95.84l-.53-.13a8.3,8.3,0,0,0-2.2-.28,12.62,12.62,0,0,0-11.1,7.13l-.26-6.2h-7.95l.06.75c.23,3.5.33,7.44.33,12.74L437,138.77h8.85V116.21a22.79,22.79,0,0,1,.24-3.43c1-5.42,4.66-8.92,9.32-8.92a21.18,21.18,0,0,1,2.37.15l.95.1Z" transform="translate(-7.09 -7.67)"/><path class="cls-1" d="M478.6,95.35c-11.78,0-20,9.41-20,22.89,0,13,8.19,21.38,20.87,21.38a34,34,0,0,0,14-2.69l.53-.24-1.7-6.6-.74.3a27.45,27.45,0,0,1-11.09,2c-3.84,0-12.71-1.27-13.25-12.83l28.57.09.11-.57a19.6,19.6,0,0,0,.27-3.69C496.16,106.13,491.56,95.35,478.6,95.35Zm-.59,6.73a8.77,8.77,0,0,1,6.5,2.48c2.54,2.59,3,6.41,3.05,8.24H467.37C468.19,107.69,471.39,102.08,478,102.08Z" transform="translate(-7.09 -7.67)"/><path class="cls-1" d="M169.54,40.3a64.13,64.13,0,0,1,8.49-.57c5.7,0,9.77,1.15,12.46,3.41s4.38,5.5,4.38,10a14,14,0,0,1-4.43,10.76c-2.92,2.59-7.67,4-13.65,4a60.8,60.8,0,0,1-7.25-.33Zm4,24.53a29.49,29.49,0,0,0,4,.16c8.49,0,13.1-4.27,13.1-11.75.05-6.61-4.06-10.68-12.46-10.68a25.56,25.56,0,0,0-4.66.37Z" transform="translate(-7.09 -7.67)"/><path class="cls-1" d="M209.11,68.07c-5.94,0-10.59-3.94-10.59-10.23,0-6.65,4.88-10.55,10.95-10.55,6.35,0,10.64,4.14,10.64,10.18,0,7.4-5.71,10.6-11,10.6Zm.13-2.71c3.84,0,6.72-3.24,6.72-7.76,0-3.37-1.88-7.6-6.62-7.6s-6.76,3.94-6.76,7.72c0,4.35,2.74,7.64,6.62,7.64Z" transform="translate(-7.09 -7.67)"/><path class="cls-1" d="M226.46,47.74l3,10.06c.59,2.22,1.19,4.32,1.6,6.37h.13c.51-2,1.24-4.15,2-6.33l3.6-10.1h3.38l3.43,9.94c.82,2.34,1.46,4.48,2,6.49h.14a55.77,55.77,0,0,1,1.68-6.45l3.15-10h4l-7.13,19.88h-3.65l-3.37-9.49a64.5,64.5,0,0,1-2-6.57h-.09a54.38,54.38,0,0,1-2,6.61l-3.56,9.45H229l-6.67-19.88Z" transform="translate(-7.09 -7.67)"/><path class="cls-1" d="M258.47,53.12c0-2.1-.05-3.74-.19-5.38h3.56l.23,3.24h.09a8.37,8.37,0,0,1,7.31-3.69c3,0,7.8,1.64,7.8,8.46V67.62h-4V56.16c0-3.21-1.33-5.92-5.12-5.92a5.73,5.73,0,0,0-5.38,3.7,4.72,4.72,0,0,0-.28,1.69v12h-4Z" transform="translate(-7.09 -7.67)"/><path class="cls-1" d="M283.8,38.45h4V67.62h-4Z" transform="translate(-7.09 -7.67)"/><path class="cls-1" d="M303.48,68.07c-5.94,0-10.59-3.94-10.59-10.23,0-6.65,4.88-10.55,10.95-10.55,6.34,0,10.64,4.14,10.64,10.18,0,7.4-5.71,10.6-11,10.6Zm.13-2.71c3.83,0,6.71-3.24,6.71-7.76,0-3.37-1.87-7.6-6.62-7.6S297,53.94,297,57.72c0,4.35,2.74,7.64,6.62,7.64Z" transform="translate(-7.09 -7.67)"/><path class="cls-1" d="M335.11,62.86a29.87,29.87,0,0,0,.32,4.76h-3.61l-.36-2.5h-.14a8.48,8.48,0,0,1-6.75,2.95c-4.48,0-6.76-2.83-6.76-5.71,0-4.8,4.75-7.43,13.28-7.39v-.41c0-1.65-.5-4.64-5-4.6a11.55,11.55,0,0,0-5.79,1.47L319.36,49a15.53,15.53,0,0,1,7.31-1.72c6.8,0,8.44,4.14,8.44,8.13Zm-3.92-5.39c-4.39-.08-9.36.62-9.36,4.48,0,2.38,1.73,3.45,3.74,3.45A5.57,5.57,0,0,0,331,62.07a3.27,3.27,0,0,0,.19-1.15Z" transform="translate(-7.09 -7.67)"/><path class="cls-1" d="M360.63,38.45v24c0,1.77.05,3.78.18,5.14h-3.6L357,64.17h-.09c-1.23,2.22-3.88,3.9-7.48,3.9C344.1,68.07,340,64,340,58c-.05-6.66,4.57-10.68,9.91-10.68,3.42,0,5.7,1.44,6.66,3h.09V38.45Zm-4,17.38a5.94,5.94,0,0,0-.18-1.56,5.8,5.8,0,0,0-5.8-4.15c-4.15,0-6.62,3.29-6.62,7.64,0,4.07,2.24,7.39,6.53,7.39a6,6,0,0,0,5.89-4.31,5.52,5.52,0,0,0,.18-1.56Z" transform="translate(-7.09 -7.67)"/><path class="cls-1" d="M386,68.07c-5.93,0-10.59-3.94-10.59-10.23,0-6.65,4.89-10.55,11-10.55,6.35,0,10.64,4.14,10.64,10.18,0,7.4-5.71,10.6-11,10.6Zm.14-2.71c3.84,0,6.71-3.24,6.71-7.76,0-3.37-1.87-7.6-6.62-7.6s-6.75,3.94-6.75,7.72c0,4.35,2.74,7.64,6.62,7.64Z" transform="translate(-7.09 -7.67)"/><path class="cls-1" d="M402,53.12c0-2.1-.05-3.74-.19-5.38h3.56l.23,3.24h.09A8.37,8.37,0,0,1,413,47.29c3,0,7.8,1.64,7.8,8.46V67.62h-4V56.16c0-3.21-1.32-5.92-5.11-5.92a5.76,5.76,0,0,0-5.39,3.7,5,5,0,0,0-.27,1.69v12h-4Z" transform="translate(-7.09 -7.67)"/><path class="cls-1" d="M441.89,43v4.77h5.75v2.75h-5.75V61.21c0,2.47.77,3.86,3,3.86a8.53,8.53,0,0,0,2.33-.24l.18,2.75a11.94,11.94,0,0,1-3.56.49,6.07,6.07,0,0,1-4.34-1.52c-1.09-1.11-1.55-2.87-1.55-5.22V50.49h-3.42V47.74H438V44.08Z" transform="translate(-7.09 -7.67)"/><path class="cls-1" d="M452.16,38.45h4V50.86h.1a6.79,6.79,0,0,1,2.88-2.55,8.5,8.5,0,0,1,4.1-1c3,0,7.72,1.64,7.72,8.5V67.62h-4V56.2c0-3.25-1.32-5.92-5.11-5.92a5.79,5.79,0,0,0-5.39,3.62,4,4,0,0,0-.28,1.73v12h-4Z" transform="translate(-7.09 -7.67)"/><path class="cls-1" d="M479.78,58.3c.09,4.88,3.51,6.9,7.53,6.9a16.84,16.84,0,0,0,6.12-1l.73,2.55a19.88,19.88,0,0,1-7.4,1.27C480,68,475.9,64,475.9,58s4-10.77,10.4-10.77c7.22,0,9.09,5.71,9.09,9.37a8.49,8.49,0,0,1-.14,1.73Zm11.73-2.59c0-2.26-1.05-5.88-5.52-5.88-4.11,0-5.85,3.37-6.17,5.88Z" transform="translate(-7.09 -7.67)"/></svg>