<svg id="Layer_1" data-name="Layer 1" xmlns="http://www.w3.org/2000/svg" xmlns:xlink="http://www.w3.org/1999/xlink" viewBox="0 0 519.48 175.31"><defs><style>.cls-1{fill:none;}.cls-2{fill:#fff;}.cls-3{clip-path:url(#clip-path);}.cls-4{fill:url(#linear-gradient);}.cls-5{fill:url(#linear-gradient-2);}.cls-6{fill:url(#linear-gradient-3);}.cls-7{fill:url(#linear-gradient-4);}.cls-8{fill:#f9f9f9;}.cls-9{fill:#f9f9fa;}</style><clipPath id="clip-path" transform="translate(-12.21 -9.34)"><path class="cls-1" d="M127.05,87,104,73.68,59.5,48c-2.47-1.43-4.93-.56-4.93,2.42V155.06c0,2.23,1.76,3.19,3.91,2L104,130.74l23.06-13.32,22.17-12.8c2.6-1.5,2.35-3.56.16-4.74S127.05,87,127.05,87Z"/></clipPath><linearGradient id="linear-gradient" x1="70.93" y1="36.21" x2="70.93" y2="149.51" gradientUnits="userSpaceOnUse"><stop offset="0" stop-color="#257cb0"/><stop offset="0.21" stop-color="#3c8fb3"/><stop offset="0.74" stop-color="#73bdba"/><stop offset="1" stop-color="#89cfbd"/></linearGradient><linearGradient id="linear-gradient-2" x1="42.36" y1="64.33" x2="114.84" y2="64.33" gradientUnits="userSpaceOnUse"><stop offset="0" stop-color="#52c1ad"/><stop offset="1" stop-color="#dee89a"/></linearGradient><linearGradient id="linear-gradient-3" x1="78.6" y1="92.86" x2="78.6" y2="149.93" gradientUnits="userSpaceOnUse"><stop offset="0" stop-color="#ec413d"/><stop offset="0.19" stop-color="#d74352"/><stop offset="0.74" stop-color="#a04888"/><stop offset="1" stop-color="#8a4a9d"/></linearGradient><linearGradient id="linear-gradient-4" x1="120.35" y1="77.65" x2="120.35" y2="108.08" gradientUnits="userSpaceOnUse"><stop offset="0" stop-color="#f58879"/><stop offset="0.62" stop-color="#fbb276"/><stop offset="1" stop-color="#fec874"/></linearGradient></defs><title>google-play</title><path d="M38.82,182.66A24.65,24.65,0,0,1,14.21,158V36A24.64,24.64,0,0,1,38.82,11.34H505.08A24.64,24.64,0,0,1,529.69,36V158a24.65,24.65,0,0,1-24.61,24.62Z" transform="translate(-12.21 -9.34)"/><path class="cls-2" d="M505.08,13.34A22.61,22.61,0,0,1,527.69,36V158a22.61,22.61,0,0,1-22.61,22.62H38.82A22.61,22.61,0,0,1,16.21,158V36A22.61,22.61,0,0,1,38.82,13.34H505.08m0-4H38.82A26.64,26.64,0,0,0,12.21,36V158a26.65,26.65,0,0,0,26.61,26.62H505.08A26.65,26.65,0,0,0,531.69,158V36A26.64,26.64,0,0,0,505.08,9.34Z" transform="translate(-12.21 -9.34)"/><g id="PLAY"><g class="cls-3"><polygon class="cls-4" points="42.37 36.21 42.37 92.86 42.37 149.51 99.5 92.86 42.37 36.21"/><polygon class="cls-5" points="114.84 77.65 91.78 64.33 42.37 35.8 42.37 36.21 99.5 92.86 114.84 77.65"/><polygon class="cls-6" points="42.37 149.51 42.37 149.93 91.78 121.39 114.84 108.08 99.5 92.86 42.37 149.51"/><polygon class="cls-7" points="114.84 77.65 99.5 92.86 114.84 108.08 141.2 92.86 114.84 77.65"/></g></g><path class="cls-8" d="M414.27,124.36a14.27,14.27,0,0,1-5.88-1.19,11.15,11.15,0,0,1-4.47-3.65h-.36a44.13,44.13,0,0,1,.36,5.47v13.56h-5V90.8H403l.69,4.51h.24a11.73,11.73,0,0,1,4.49-3.91,13.6,13.6,0,0,1,5.86-1.2q6.56,0,10.11,4.48T428,107.25q0,8.11-3.62,12.61A12.21,12.21,0,0,1,414.27,124.36Zm-.72-29.92q-5.06,0-7.31,2.8t-2.32,8.9v1.11q0,6.94,2.32,9.94t7.43,3a7.75,7.75,0,0,0,6.69-3.46q2.42-3.45,2.42-9.53t-2.42-9.46A8,8,0,0,0,413.55,94.44Z" transform="translate(-12.21 -9.34)"/><path class="cls-8" d="M439.5,123.75h-5V77h5Z" transform="translate(-12.21 -9.34)"/><path class="cls-8" d="M468.19,123.75l-1-4.69H467a13.8,13.8,0,0,1-4.91,4.2,15.05,15.05,0,0,1-6.12,1.1,11,11,0,0,1-7.68-2.53c-1.86-1.68-2.78-4.08-2.78-7.18q0-10,16-10.47L467,104v-2c0-2.59-.55-4.5-1.67-5.73s-2.89-1.85-5.33-1.85a21.62,21.62,0,0,0-9.32,2.53l-1.54-3.82A24.21,24.21,0,0,1,454.5,91a23.12,23.12,0,0,1,5.82-.75q5.9,0,8.73,2.62t2.84,8.39v22.48Zm-11.27-3.51a10.09,10.09,0,0,0,7.32-2.56,9.47,9.47,0,0,0,2.66-7.16v-3l-5,.21q-6,.21-8.58,1.85a5.56,5.56,0,0,0-2.63,5.1,5.1,5.1,0,0,0,1.64,4.11A6.73,6.73,0,0,0,456.92,120.24Z" transform="translate(-12.21 -9.34)"/><path class="cls-8" d="M474.79,90.8h5.35l7.22,18.79a71.35,71.35,0,0,1,2.94,9.3h.24q.39-1.55,1.64-5.25t8.16-22.84h5.36l-14.17,37.52q-2.1,5.56-4.91,7.9a10.49,10.49,0,0,1-6.9,2.33,20.12,20.12,0,0,1-4.51-.51v-4a17.39,17.39,0,0,0,3.7.36q5.14,0,7.33-5.77l1.84-4.69Z" transform="translate(-12.21 -9.34)"/><path class="cls-8" d="M321.82,93.86c1.58,1.32,4.89,4.07,4.89,9.31s-2.89,7.51-5.79,9.79c-.9.89-1.93,1.86-1.93,3.38a3.78,3.78,0,0,0,1.79,3l2.49,1.92c3,2.55,5.78,4.9,5.78,9.66,0,6.48-6.27,13-18.12,13-10,0-14.82-4.75-14.82-9.86,0-2.48,1.24-6,5.31-8.4,4.27-2.62,10.06-3,13.16-3.18-1-1.24-2.07-2.55-2.07-4.68a6.26,6.26,0,0,1,.69-2.69c-.76.07-1.52.14-2.21.14-7.3,0-11.43-5.45-11.43-10.82a12.36,12.36,0,0,1,4.4-9.23c3.93-3.24,8.62-3.8,12.35-3.8H330.5l-4.41,2.48Zm-4.9,30.61a10.92,10.92,0,0,0-1.58-.07,27.76,27.76,0,0,0-7.24,1.1c-1.51.55-5.93,2.2-5.93,7.1s4.76,8.41,12.14,8.41c6.61,0,10.13-3.18,10.13-7.45C324.44,130,322.16,128.19,316.92,124.47Zm2-13.1a6.94,6.94,0,0,0,1.72-5c0-5-3-12.68-8.68-12.68a6.42,6.42,0,0,0-4.82,2.27,8,8,0,0,0-1.52,5.1c0,4.62,2.69,12.27,8.62,12.27A7,7,0,0,0,318.92,111.37Z" transform="translate(-12.21 -9.34)"/><path class="cls-8" d="M278.43,123.36a16.24,16.24,0,0,1-16.79-16.24c0-9,7.36-16.72,17.83-16.72a16.09,16.09,0,0,1,16.44,16.24C295.91,114.76,289.65,123.36,278.43,123.36Zm8.6-5.57a12.46,12.46,0,0,0,2.07-7.64c0-6.06-2.89-17.61-11.43-17.61a9.56,9.56,0,0,0-6.19,2.34c-2.68,2.4-3.17,5.43-3.17,8.4,0,6.8,3.38,18,11.7,18A8.79,8.79,0,0,0,287,117.79Z" transform="translate(-12.21 -9.34)"/><path class="cls-8" d="M241.13,123.36a16.24,16.24,0,0,1-16.79-16.24c0-9,7.37-16.72,17.83-16.72a16.09,16.09,0,0,1,16.44,16.24C258.61,114.76,252.35,123.36,241.13,123.36Zm8.61-5.57a12.45,12.45,0,0,0,2.06-7.64c0-6.06-2.89-17.61-11.42-17.61a9.56,9.56,0,0,0-6.19,2.34c-2.69,2.4-3.17,5.43-3.17,8.4,0,6.8,3.37,18,11.7,18A8.82,8.82,0,0,0,249.74,117.79Z" transform="translate(-12.21 -9.34)"/><path class="cls-8" d="M219.09,122.29l-9.9,2.28a73.75,73.75,0,0,1-11.41,1.17c-19.09,0-26.36-14-26.36-25,0-13.42,10.31-25.87,28-25.87A40,40,0,0,1,210,76.28a27.05,27.05,0,0,1,9.13,4.29L213.34,86l-2.42.55,1.73-2.77c-2.35-2.28-6.64-6.5-14.8-6.5-10.93,0-19.16,8.3-19.16,20.41,0,13,9.4,25.25,24.48,25.25a20.63,20.63,0,0,0,8.79-1.73V110.11l-10.44.55,5.53-3h14.66l-1.79,1.72a1.64,1.64,0,0,0-.7,1.11c-.07.62-.13,2.63-.13,3.32Z" transform="translate(-12.21 -9.34)"/><path class="cls-8" d="M343.68,120.29c-2.28-.2-2.76-.62-2.76-3.32V77.82c0-.15,0-.3,0-.45.28-2.42,1-2.83,3.12-4.08h-9.9L329,75.78h5.29v42.71c0,1.39-.27,1.6-1.86,3.67h12.24l2.56-1.52C346,120.5,344.86,120.43,343.68,120.29Z" transform="translate(-12.21 -9.34)"/><path class="cls-8" d="M371.83,120.93c-.75.41-1.51.9-2.26,1.24a16,16,0,0,1-6.67,1.3,14.69,14.69,0,0,1-9.14-2.68c-4.87-3.44-7-9.34-7-14.5,0-10.64,8.65-15.86,15.73-15.86a13.33,13.33,0,0,1,7.08,1.92,11.34,11.34,0,0,1,4.8,6.8l-16.14,6.53-5.29.41c1.72,8.72,7.63,13.81,14.15,13.81a17.74,17.74,0,0,0,8.39-2.41Zm-6.45-20.48c1.3-.48,2-.89,2-1.85,0-2.75-3.09-5.91-6.8-5.91-2.76,0-7.91,2.13-7.91,9.55,0,1.17.14,2.41.21,3.65Z" transform="translate(-12.21 -9.34)"/><path class="cls-8" d="M378.46,90.9v4.53h-.55V90.9h-1.5v-.47H380v.47Z" transform="translate(-12.21 -9.34)"/><path class="cls-8" d="M384.64,95.43V90.85h0l-1.4,4.58h-.43l-1.41-4.58h0v4.58h-.5v-5h.85l1.28,4h0l1.25-4h.87v5Z" transform="translate(-12.21 -9.34)"/><path class="cls-9" d="M185.16,61.36h-3.43a23.16,23.16,0,0,0-1-4h-5a20.2,20.2,0,0,0-1,4h-3.24q0-.42,2.51-6.88a54.08,54.08,0,0,0,2.51-7.11h4.06a59.56,59.56,0,0,0,2.27,7A60,60,0,0,1,185.16,61.36Zm-5-6.07c-1.22-3.7-1.84-5.69-1.84-6h-.17q0,.41-1.9,6Z" transform="translate(-12.21 -9.34)"/><path class="cls-9" d="M199,61.36h-2.65c0-.3-1-1.84-3-4.65s-3.24-5-3.53-6.07h-.17a37.55,37.55,0,0,1,.27,4.25q0,2.65.15,6.47h-2.64q.16-3.33.16-7.32t-.16-6.67h3.19q0,.57,2.65,4.55a26.56,26.56,0,0,1,3.25,5.72h.16a41,41,0,0,1-.26-4.29q0-2.93-.15-6H199q-.15,2.67-.15,6.67C198.86,56.74,198.91,59.17,199,61.36Z" transform="translate(-12.21 -9.34)"/><path class="cls-9" d="M214.58,53.88a7.93,7.93,0,0,1-2,5.33,6.82,6.82,0,0,1-5.48,2.28c-1.06,0-2.52-.05-4.38-.13q.14-3.24.14-7.32c0-2.6,0-4.83-.14-6.67h1.88l1.37,0,1.2,0q3.87,0,5.62,1.93A6.71,6.71,0,0,1,214.58,53.88Zm-2.93.46a5.18,5.18,0,0,0-1.2-3.47,4.57,4.57,0,0,0-3.68-1.41,12,12,0,0,0-1.26.09c.07,1.44.1,2.93.1,4.49,0,1.72,0,3.41.11,5.1a7.37,7.37,0,0,0,1.4.13,4,4,0,0,0,3.42-1.43A5.55,5.55,0,0,0,211.65,54.34Z" transform="translate(-12.21 -9.34)"/><path class="cls-9" d="M228.94,61.36h-3.18a21.41,21.41,0,0,0-1.91-4.7,2.53,2.53,0,0,0-2.15-.89h-1.19c0,1.84,0,3.7.1,5.58h-3q.13-3.24.14-7.32c0-2.6,0-4.83-.14-6.67h1.86l1.35,0,1.89,0q4.93,0,4.93,3.37a3.79,3.79,0,0,1-2.81,3.73v.16a3.36,3.36,0,0,1,1.9,1.69A37.69,37.69,0,0,1,228.94,61.36Zm-4-9.88c0-1.43-.91-2.14-2.75-2.14a9.46,9.46,0,0,0-1.78.15c.08,1.11.12,2.56.12,4.34l1,0C223.77,53.85,224.91,53.06,224.91,51.48Z" transform="translate(-12.21 -9.34)"/><path class="cls-9" d="M244.34,54.11a7.71,7.71,0,0,1-2,5.47,6.58,6.58,0,0,1-5,2.17,6.29,6.29,0,0,1-4.74-2,7,7,0,0,1-1.92-5.06,7.75,7.75,0,0,1,2-5.47,6.56,6.56,0,0,1,5-2.17,6.32,6.32,0,0,1,4.75,2A7,7,0,0,1,244.34,54.11Zm-3,.31a5.56,5.56,0,0,0-1.14-3.64,3.56,3.56,0,0,0-2.84-1.4,3.26,3.26,0,0,0-2.66,1.41,6.31,6.31,0,0,0,.05,7.19,3.56,3.56,0,0,0,2.83,1.4A3.28,3.28,0,0,0,240.28,58,5.63,5.63,0,0,0,241.37,54.42Z" transform="translate(-12.21 -9.34)"/><path class="cls-9" d="M250.41,61.36h-3c.1-2.22.14-4.66.14-7.32s0-4.83-.14-6.67h3q-.14,2.72-.14,6.67T250.41,61.36Z" transform="translate(-12.21 -9.34)"/><path class="cls-9" d="M266,53.88a7.93,7.93,0,0,1-2,5.33,6.84,6.84,0,0,1-5.48,2.28c-1.06,0-2.52-.05-4.38-.13q.14-3.24.14-7.32c0-2.6-.05-4.83-.14-6.67h1.88l1.37,0,1.19,0c2.59,0,4.46.64,5.63,1.93A6.71,6.71,0,0,1,266,53.88Zm-2.93.46a5.18,5.18,0,0,0-1.2-3.47,4.57,4.57,0,0,0-3.68-1.41,12,12,0,0,0-1.26.09c.07,1.44.1,2.93.1,4.49,0,1.72,0,3.41.11,5.1a7.37,7.37,0,0,0,1.4.13,4,4,0,0,0,3.42-1.43A5.55,5.55,0,0,0,263.05,54.34Z" transform="translate(-12.21 -9.34)"/><path class="cls-9" d="M286.64,61.36H283.2a22.17,22.17,0,0,0-1-4h-5a21,21,0,0,0-1,4H273a72.68,72.68,0,0,1,2.51-6.88,53.07,53.07,0,0,0,2.5-7.11h4.06a58.63,58.63,0,0,0,2.28,7A62.43,62.43,0,0,1,286.64,61.36Zm-5-6.07a60,60,0,0,1-1.84-6h-.17c0,.27-.64,2.27-1.9,6Z" transform="translate(-12.21 -9.34)"/><path class="cls-9" d="M299.17,51a4.19,4.19,0,0,1-1.91,3.79,8.53,8.53,0,0,1-4.68,1.22,6.68,6.68,0,0,1-.72,0c0,1.35,0,3.12.12,5.33h-3c.1-2.07.14-4.51.14-7.32,0-2.57,0-4.8-.14-6.67h1.87l1.53,0,1.95,0a6.21,6.21,0,0,1,3.45.92A3.13,3.13,0,0,1,299.17,51Zm-2.77.59c0-1.54-1-2.3-3-2.3a8.36,8.36,0,0,0-1.61.16c.08,1.35.11,2.88.11,4.6l.63,0Q296.4,54.11,296.4,51.63Z" transform="translate(-12.21 -9.34)"/><path class="cls-9" d="M312.05,51a4.19,4.19,0,0,1-1.9,3.79,8.53,8.53,0,0,1-4.68,1.22,6.48,6.48,0,0,1-.72,0c0,1.35,0,3.12.12,5.33h-3Q302,58.26,302,54c0-2.57-.05-4.8-.14-6.67h1.87l1.52,0,2,0a6.21,6.21,0,0,1,3.45.92A3.15,3.15,0,0,1,312.05,51Zm-2.77.59c0-1.54-1-2.3-3-2.3a8.44,8.44,0,0,0-1.61.16c.08,1.35.12,2.88.12,4.6l.62,0C308,54.11,309.28,53.28,309.28,51.63Z" transform="translate(-12.21 -9.34)"/><path class="cls-9" d="M333.12,54.11a7.75,7.75,0,0,1-2,5.47,6.58,6.58,0,0,1-5,2.17,6.29,6.29,0,0,1-4.74-2,7,7,0,0,1-1.92-5.06,7.75,7.75,0,0,1,2-5.47,6.55,6.55,0,0,1,5-2.17,6.32,6.32,0,0,1,4.75,2A7,7,0,0,1,333.12,54.11Zm-3,.31A5.51,5.51,0,0,0,329,50.78a3.53,3.53,0,0,0-2.83-1.4,3.28,3.28,0,0,0-2.67,1.41,5.61,5.61,0,0,0-1.09,3.55A5.53,5.53,0,0,0,323.56,58a3.56,3.56,0,0,0,2.83,1.4A3.28,3.28,0,0,0,329.06,58,5.63,5.63,0,0,0,330.15,54.42Z" transform="translate(-12.21 -9.34)"/><path class="cls-9" d="M347.68,61.36H345c0-.3-1-1.84-2.95-4.65s-3.24-5-3.52-6.07h-.17a39.84,39.84,0,0,1,.26,4.25q0,2.65.15,6.47h-2.64q.17-3.33.16-7.32t-.16-6.67h3.19q0,.57,2.66,4.55a26.82,26.82,0,0,1,3.24,5.72h.16a41,41,0,0,1-.26-4.29q0-2.93-.15-6h2.69q-.15,2.67-.15,6.67C347.53,56.74,347.58,59.17,347.68,61.36Z" transform="translate(-12.21 -9.34)"/></svg>